<?xml version="1.0" encoding="utf-8"?>
<!-- Generator: Adobe Illustrator 19.0.0, SVG Export Plug-In . SVG Version: 6.00 Build 0)  -->
<!DOCTYPE svg PUBLIC "-//W3C//DTD SVG 1.1//EN" "http://www.w3.org/Graphics/SVG/1.1/DTD/svg11.dtd">
<svg version="1.1" id="Layer_1" xmlns="http://www.w3.org/2000/svg" xmlns:xlink="http://www.w3.org/1999/xlink" x="0px" y="0px"
	 viewBox="0 0 792 612" enable-background="new 0 0 792 612" xml:space="preserve">
<g id="XMLID_7_">
	<path id="XMLID_14_" d="M101,253.5l0.8,0.8l42,106.2l-0.8,0.8h-18.9l-0.8-0.8l-8.9-23.4H70.5l-9.1,23.4l-0.8,0.8H41.7l-0.8-0.8
		l42.2-106.2l0.8-0.8H101z M77,319.3H108l-15.5-41.6L77,319.3z"/>
	<path id="XMLID_12_" d="M296.9,253.5l0.6,0.6v89.2h46.3l0.6,0.8v16.6l-0.6,0.6h-63.6l-0.6-0.6V254.1l0.6-0.6H296.9z"/>
	<path id="XMLID_10_" d="M466.1,253.5l1.2,0.8l26.5,36.2l26.5-36.2l1.2-0.8h19.2l0.8,0.8l-38.8,54v52.2l-0.8,0.8h-16.3l-0.8-0.8
		v-52.2l-38.8-54l0.8-0.8H466.1z"/>
	<path id="XMLID_8_" d="M685,253.5l1.5,0.8l25.9,35l25.9-35l1.5-0.8h21.1l0.8,0.8l-38,50l42.7,56.2l-0.8,0.8h-21.1l-1.5-0.8
		l-30.5-41.1L682,360.5l-1.5,0.8h-21.1l-0.8-0.8l42.7-56.2l-38-50l0.8-0.8H685z"/>
</g>
</svg>
