<?xml version="1.0" encoding="utf-8"?>
<!-- Generator: Adobe Illustrator 19.0.1, SVG Export Plug-In . SVG Version: 6.00 Build 0)  -->
<svg version="1.1" id="Layer_1" xmlns="http://www.w3.org/2000/svg" xmlns:xlink="http://www.w3.org/1999/xlink" x="0px" y="0px"
	 viewBox="0 0 555.5 551.6" enable-background="new 0 0 555.5 551.6" xml:space="preserve">
<g id="XMLID_8_">
	<path id="XMLID_6_" fill="#010101" d="M0,0h80.3l32,188.1L144,0.3h79.4v268.4h-49L179,35.9l-43.4,232.8H89.2L45.1,35.9L49,268.8H0
		V0z"/>
	<path id="XMLID_5_" fill="#010101" d="M250.5,0h131.3v41.5h-81.3v67.3h76.7v40.2h-76.7v119.9h-50V0z"/>
	<path id="XMLID_4_" fill="#010101" d="M406.6,0h148.6v38.9h-49.3v229.9h-50V38.9h-49.3L406.6,0L406.6,0z"/>
	<path id="XMLID_3_" fill="#010101" d="M223.4,551.3H143l-32-187.8L79.4,551.3H0V282.8h49l-4.6,232.8l43.4-232.8h46.4l44.1,232.8
		l-3.6-232.8h48.7V551.3z"/>
	<path id="XMLID_2_" fill="#010101" d="M555.5,551.3h-50V431.4h-76.7v-39.8h76.7v-67.3h-81.3v-41.5h131.3V551.3z"/>
	<path id="XMLID_7_" fill="#010101" d="M250.5,282.8h148.6v38.9h-49.3v229.9h-49.6V321.3h-49.6V282.8z"/>
</g>
</svg>
