<?xml version="1.0" encoding="utf-8"?>
<!-- Generator: Adobe Illustrator 17.0.0, SVG Export Plug-In . SVG Version: 6.00 Build 0)  -->
<!DOCTYPE svg PUBLIC "-//W3C//DTD SVG 1.1//EN" "http://www.w3.org/Graphics/SVG/1.1/DTD/svg11.dtd">
<svg version="1.1" id="Livello_1" xmlns="http://www.w3.org/2000/svg" xmlns:xlink="http://www.w3.org/1999/xlink" x="0px" y="0px"
	 width="428.694px" height="428.692px" viewBox="0 0 428.694 428.692" style="enable-background:new 0 0 428.694 428.692;"
	 xml:space="preserve">
<path style="fill:#010101;" d="M419.714,214.007c0,113.594-92.107,205.722-205.72,205.722
	c-113.623,0-205.698-92.128-205.698-205.722C8.296,100.4,100.371,8.296,213.994,8.296C327.607,8.296,419.714,100.4,419.714,214.007
	 M213.994,25.284c-104.21,0-188.711,84.485-188.711,188.723s84.502,188.716,188.711,188.716
	c104.216,0,188.714-84.478,188.714-188.716S318.21,25.284,213.994,25.284"/>
<polygon style="fill:#010101;" points="75.594,313.775 139.12,216.029 107.336,198.715 231.978,85.448 164.908,190.355
	191.836,207.715 "/>
<polygon style="fill:#010101;" points="153.786,289.207 270.348,162.772 291.309,190.925 381.236,129.821 282.354,247.245
	263.754,216.029 "/>
<path style="fill:#010101;" d="M420.498,214.35c0,113.849-92.304,206.146-206.134,206.146C100.5,420.496,8.196,328.199,8.196,214.35
	C8.196,100.5,100.5,8.196,214.364,8.196C328.194,8.196,420.498,100.5,420.498,214.35 M214.364,25.213
	c-104.465,0-189.137,84.699-189.137,189.137c0,104.439,84.671,189.117,189.137,189.117c104.443,0,189.101-84.678,189.101-189.117
	C403.465,109.912,318.807,25.213,214.364,25.213"/>
</svg>
